<svg id="visual" viewBox="0 0 900 600" width="900" height="600" xmlns="http://www.w3.org/2000/svg" xmlns:xlink="http://www.w3.org/1999/xlink" version="1.1"><g stroke-width="1" stroke-linejoin="bevel"><path d="M403 264L391 227L328 279Z" fill="#15384f" stroke="#15384f"></path><path d="M391 227L271 230L328 279Z" fill="#15384f" stroke="#15384f"></path><path d="M302 368L401 363L328 279Z" fill="#297ea6" stroke="#297ea6"></path><path d="M328 279L401 363L403 264Z" fill="#246688" stroke="#246688"></path><path d="M506 264L478 228L403 264Z" fill="#246688" stroke="#246688"></path><path d="M403 264L478 228L391 227Z" fill="#205a7a" stroke="#205a7a"></path><path d="M271 230L302 368L328 279Z" fill="#15384f" stroke="#15384f"></path><path d="M478 228L394 119L391 227Z" fill="#112e42" stroke="#112e42"></path><path d="M391 227L394 119L271 230Z" fill="#0c2435" stroke="#0c2435"></path><path d="M401 363L506 264L403 264Z" fill="#205a7a" stroke="#205a7a"></path><path d="M478 228L499 95L394 119Z" fill="#246688" stroke="#246688"></path><path d="M406 515L481 384L401 363Z" fill="#15384f" stroke="#15384f"></path><path d="M401 363L481 384L506 264Z" fill="#1d4e6b" stroke="#1d4e6b"></path><path d="M180 187L186 265L271 230Z" fill="#112e42" stroke="#112e42"></path><path d="M271 230L186 265L302 368Z" fill="#19435d" stroke="#19435d"></path><path d="M206 128L180 187L271 230Z" fill="#205a7a" stroke="#205a7a"></path><path d="M268 67L206 128L271 230Z" fill="#0c2435" stroke="#0c2435"></path><path d="M625 201L499 95L478 228Z" fill="#00101c" stroke="#00101c"></path><path d="M394 119L268 67L271 230Z" fill="#15384f" stroke="#15384f"></path><path d="M374 0L268 67L394 119Z" fill="#00101c" stroke="#00101c"></path><path d="M481 384L577 312L506 264Z" fill="#1d4e6b" stroke="#1d4e6b"></path><path d="M506 264L625 201L478 228Z" fill="#277297" stroke="#277297"></path><path d="M190 420L284 468L302 368Z" fill="#246688" stroke="#246688"></path><path d="M302 368L284 468L401 363Z" fill="#277297" stroke="#277297"></path><path d="M186 265L190 420L302 368Z" fill="#1d4e6b" stroke="#1d4e6b"></path><path d="M112 317L190 420L186 265Z" fill="#246688" stroke="#246688"></path><path d="M478 0L374 0L394 119Z" fill="#1d4e6b" stroke="#1d4e6b"></path><path d="M70 170L186 265L180 187Z" fill="#277297" stroke="#277297"></path><path d="M70 170L112 317L186 265Z" fill="#081a28" stroke="#081a28"></path><path d="M284 468L406 515L401 363Z" fill="#00101c" stroke="#00101c"></path><path d="M481 384L578 434L577 312Z" fill="#246688" stroke="#246688"></path><path d="M577 312L625 201L506 264Z" fill="#081a28" stroke="#081a28"></path><path d="M268 67L236 0L206 128Z" fill="#277297" stroke="#277297"></path><path d="M206 128L114 99L180 187Z" fill="#081a28" stroke="#081a28"></path><path d="M374 0L265 0L268 67Z" fill="#277297" stroke="#277297"></path><path d="M190 420L237 502L284 468Z" fill="#15384f" stroke="#15384f"></path><path d="M284 468L272 600L406 515Z" fill="#0c2435" stroke="#0c2435"></path><path d="M131 535L237 502L190 420Z" fill="#205a7a" stroke="#205a7a"></path><path d="M516 507L578 434L481 384Z" fill="#081a28" stroke="#081a28"></path><path d="M732 326L704 187L625 201Z" fill="#15384f" stroke="#15384f"></path><path d="M499 95L478 0L394 119Z" fill="#246688" stroke="#246688"></path><path d="M593 0L478 0L499 95Z" fill="#246688" stroke="#246688"></path><path d="M625 201L591 92L499 95Z" fill="#00101c" stroke="#00101c"></path><path d="M265 0L236 0L268 67Z" fill="#112e42" stroke="#112e42"></path><path d="M406 515L516 507L481 384Z" fill="#19435d" stroke="#19435d"></path><path d="M130 0L114 99L206 128Z" fill="#15384f" stroke="#15384f"></path><path d="M114 99L70 170L180 187Z" fill="#15384f" stroke="#15384f"></path><path d="M0 288L70 379L112 317Z" fill="#15384f" stroke="#15384f"></path><path d="M112 317L70 379L190 420Z" fill="#081a28" stroke="#081a28"></path><path d="M516 507L585 485L578 434Z" fill="#1d4e6b" stroke="#1d4e6b"></path><path d="M732 326L625 201L577 312Z" fill="#0c2435" stroke="#0c2435"></path><path d="M691 108L593 0L591 92Z" fill="#00101c" stroke="#00101c"></path><path d="M591 92L593 0L499 95Z" fill="#0c2435" stroke="#0c2435"></path><path d="M236 0L130 0L206 128Z" fill="#15384f" stroke="#15384f"></path><path d="M0 128L0 175L70 170Z" fill="#205a7a" stroke="#205a7a"></path><path d="M687 413L577 312L578 434Z" fill="#19435d" stroke="#19435d"></path><path d="M625 201L691 108L591 92Z" fill="#081a28" stroke="#081a28"></path><path d="M272 600L426 600L406 515Z" fill="#277297" stroke="#277297"></path><path d="M406 515L492 600L516 507Z" fill="#19435d" stroke="#19435d"></path><path d="M516 507L611 600L585 485Z" fill="#19435d" stroke="#19435d"></path><path d="M226 600L272 600L237 502Z" fill="#112e42" stroke="#112e42"></path><path d="M237 502L272 600L284 468Z" fill="#112e42" stroke="#112e42"></path><path d="M676 472L578 434L585 485Z" fill="#19435d" stroke="#19435d"></path><path d="M676 472L687 413L578 434Z" fill="#00101c" stroke="#00101c"></path><path d="M704 187L691 108L625 201Z" fill="#15384f" stroke="#15384f"></path><path d="M70 379L131 535L190 420Z" fill="#081a28" stroke="#081a28"></path><path d="M70 170L0 288L112 317Z" fill="#205a7a" stroke="#205a7a"></path><path d="M70 379L0 482L131 535Z" fill="#205a7a" stroke="#205a7a"></path><path d="M0 175L0 288L70 170Z" fill="#0c2435" stroke="#0c2435"></path><path d="M426 600L492 600L406 515Z" fill="#297ea6" stroke="#297ea6"></path><path d="M131 535L226 600L237 502Z" fill="#15384f" stroke="#15384f"></path><path d="M0 128L70 170L114 99Z" fill="#205a7a" stroke="#205a7a"></path><path d="M687 413L732 326L577 312Z" fill="#1d4e6b" stroke="#1d4e6b"></path><path d="M704 187L779 125L691 108Z" fill="#00101c" stroke="#00101c"></path><path d="M611 600L676 472L585 485Z" fill="#00101c" stroke="#00101c"></path><path d="M835 418L837 328L732 326Z" fill="#081a28" stroke="#081a28"></path><path d="M0 0L0 128L114 99Z" fill="#15384f" stroke="#15384f"></path><path d="M0 288L0 404L70 379Z" fill="#081a28" stroke="#081a28"></path><path d="M492 600L611 600L516 507Z" fill="#246688" stroke="#246688"></path><path d="M0 404L0 482L70 379Z" fill="#112e42" stroke="#112e42"></path><path d="M131 535L103 600L226 600Z" fill="#1d4e6b" stroke="#1d4e6b"></path><path d="M0 482L103 600L131 535Z" fill="#277297" stroke="#277297"></path><path d="M833 166L779 125L704 187Z" fill="#297ea6" stroke="#297ea6"></path><path d="M691 108L733 0L593 0Z" fill="#00101c" stroke="#00101c"></path><path d="M130 0L0 0L114 99Z" fill="#081a28" stroke="#081a28"></path><path d="M779 125L733 0L691 108Z" fill="#112e42" stroke="#112e42"></path><path d="M837 328L833 166L732 326Z" fill="#297ea6" stroke="#297ea6"></path><path d="M732 326L833 166L704 187Z" fill="#297ea6" stroke="#297ea6"></path><path d="M779 125L815 0L733 0Z" fill="#246688" stroke="#246688"></path><path d="M732 326L687 413L835 418Z" fill="#297ea6" stroke="#297ea6"></path><path d="M772 516L687 413L676 472Z" fill="#246688" stroke="#246688"></path><path d="M611 600L702 600L676 472Z" fill="#19435d" stroke="#19435d"></path><path d="M702 600L772 516L676 472Z" fill="#246688" stroke="#246688"></path><path d="M772 516L835 418L687 413Z" fill="#1d4e6b" stroke="#1d4e6b"></path><path d="M0 482L0 600L103 600Z" fill="#277297" stroke="#277297"></path><path d="M900 63L815 0L779 125Z" fill="#15384f" stroke="#15384f"></path><path d="M837 328L900 299L833 166Z" fill="#246688" stroke="#246688"></path><path d="M833 166L900 63L779 125Z" fill="#15384f" stroke="#15384f"></path><path d="M900 395L900 299L837 328Z" fill="#277297" stroke="#277297"></path><path d="M900 468L900 395L835 418Z" fill="#15384f" stroke="#15384f"></path><path d="M835 418L900 395L837 328Z" fill="#205a7a" stroke="#205a7a"></path><path d="M702 600L780 600L772 516Z" fill="#246688" stroke="#246688"></path><path d="M900 299L900 168L833 166Z" fill="#15384f" stroke="#15384f"></path><path d="M900 468L835 418L772 516Z" fill="#1d4e6b" stroke="#1d4e6b"></path><path d="M900 168L900 63L833 166Z" fill="#112e42" stroke="#112e42"></path><path d="M900 600L900 468L772 516Z" fill="#246688" stroke="#246688"></path><path d="M900 63L900 0L815 0Z" fill="#1d4e6b" stroke="#1d4e6b"></path><path d="M780 600L900 600L772 516Z" fill="#277297" stroke="#277297"></path></g></svg>