<svg id="visual" viewBox="0 0 900 600" width="900" height="600" xmlns="http://www.w3.org/2000/svg" xmlns:xlink="http://www.w3.org/1999/xlink" version="1.1"><rect width="900" height="600" fill="#00309e"></rect><g><g transform="translate(242 305)"><path d="M0 -42.9L42.9 0L0 42.9L-42.9 0Z" fill="#00daff"></path></g><g transform="translate(245 77)"><path d="M0 -29L29 0L0 29L-29 0Z" fill="#00daff"></path></g><g transform="translate(608 198)"><path d="M0 -39L39 0L0 39L-39 0Z" fill="#00daff"></path></g><g transform="translate(68 308)"><path d="M0 -33L33 0L0 33L-33 0Z" fill="#00daff"></path></g><g transform="translate(24 546)"><path d="M0 -28L28 0L0 28L-28 0Z" fill="#00daff"></path></g><g transform="translate(373 365)"><path d="M0 -31L31 0L0 31L-31 0Z" fill="#00daff"></path></g><g transform="translate(858 324)"><path d="M0 -35L35 0L0 35L-35 0Z" fill="#00daff"></path></g><g transform="translate(622 286)"><path d="M0 -29L29 0L0 29L-29 0Z" fill="#00daff"></path></g><g transform="translate(661 530)"><path d="M0 -36L36 0L0 36L-36 0Z" fill="#00daff"></path></g><g transform="translate(102 27)"><path d="M0 -37L37 0L0 37L-37 0Z" fill="#00daff"></path></g><g transform="translate(677 403)"><path d="M0 -37L37 0L0 37L-37 0Z" fill="#00daff"></path></g><g transform="translate(145 504)"><path d="M0 -27L27 0L0 27L-27 0Z" fill="#00daff"></path></g><g transform="translate(720 131)"><path d="M0 -36L36 0L0 36L-36 0Z" fill="#00daff"></path></g><g transform="translate(851 234)"><path d="M0 -36L36 0L0 36L-36 0Z" fill="#00daff"></path></g><g transform="translate(349 451)"><path d="M0 -36L36 0L0 36L-36 0Z" fill="#00daff"></path></g><g transform="translate(812 94)"><path d="M0 -26L26 0L0 26L-26 0Z" fill="#00daff"></path></g><g transform="translate(401 588)"><path d="M0 -33L33 0L0 33L-33 0Z" fill="#00daff"></path></g><g transform="translate(401 258)"><path d="M0 -31L31 0L0 31L-31 0Z" fill="#00daff"></path></g><g transform="translate(472 357)"><path d="M0 -28L28 0L0 28L-28 0Z" fill="#00daff"></path></g><g transform="translate(242 450)"><path d="M0 -29L29 0L0 29L-29 0Z" fill="#00daff"></path></g><g transform="translate(18 213)"><path d="M0 -40L40 0L0 40L-40 0Z" fill="#00daff"></path></g></g></svg>